<svg width="48" height="43" viewBox="0 0 48 43" fill="none" xmlns="http://www.w3.org/2000/svg">
<mask id="mask0_1924_14378" style="mask-type:alpha" maskUnits="userSpaceOnUse" x="0" y="0" width="24" height="43">
<path fill-rule="evenodd" clip-rule="evenodd" d="M0 0H23.6473V42.72H0V0Z" fill="white"/>
</mask>
<g mask="url(#mask0_1924_14378)">
<path fill-rule="evenodd" clip-rule="evenodd" d="M19.751 42.72C18.641 42.72 17.538 42.248 16.767 41.332L0 21.408L16.761 1.39503C18.143 -0.255967 20.603 -0.471967 22.252 0.910033C23.902 2.29303 24.12 4.75103 22.738 6.40103L10.178 21.396L22.731 36.313C24.118 37.96 23.906 40.418 22.259 41.805C21.528 42.42 20.638 42.72 19.751 42.72" fill="#020303"/>
</g>
<path fill-rule="evenodd" clip-rule="evenodd" d="M43.1679 25.2997H5.08792C2.93692 25.2997 1.19092 23.5537 1.19092 21.4017C1.19092 19.2487 2.93692 17.5037 5.08792 17.5037H43.1679C45.3199 17.5037 47.0649 19.2487 47.0649 21.4017C47.0649 23.5537 45.3199 25.2997 43.1679 25.2997" fill="#020303"/>
</svg>
